<svg xmlns="http://www.w3.org/2000/svg" viewBox="0 0 100 100" width="100" height="100">
    <!-- Outer concentric rings and swirling rays -->
    <path fill="#000000" d="M50,5 A45,45 0 1,0 95,50 A45,45 0 0,0 50,5 M50,12 A38,38 0 1,1 12,50 A38,38 0 0,1 50,12" />
    <path fill="#000000" d="M50,22 A28,28 0 1,0 78,50 A28,28 0 0,0 50,22 M50,26 A24,24 0 1,1 26,50 A24,24 0 0,1 50,26" />
    <!-- Center spiral core -->
    <circle cx="50" cy="50" r="10" fill="#000000" />
    <!-- Swirling rays -->
    <path fill="#000000" d="M50,12 C58,20 62,32 50,42 C42,32 46,20 50,12 Z" />
    <path fill="#000000" d="M88,50 C80,58 68,62 58,50 C68,42 80,46 88,50 Z" />
    <path fill="#000000" d="M50,88 C42,80 38,68 50,58 C58,68 54,80 50,88 Z" />
    <path fill="#000000" d="M12,50 C20,42 32,38 42,50 C32,58 20,54 12,50 Z" />
    <path fill="#000000" d="M77,23 C73,33 61,40 57,30 C64,22 74,17 77,23 Z" />
    <path fill="#000000" d="M77,77 C67,73 60,61 70,57 C78,64 83,74 77,77 Z" />
    <path fill="#000000" d="M23,77 C27,67 39,60 43,70 C36,78 26,83 23,77 Z" />
    <path fill="#000000" d="M23,23 C33,27 40,39 30,43 C22,36 17,26 23,23 Z" />
</svg>